PathFileType	3	(X/Y/Z)	RCH0000002 BBF 15.c3d
DataRate	CameraRate	NumFrames	NumMarkers	Units	OrigDataRate	OrigDataStartFrame	OrigNumFrames
100.0	100.0	8	23	mm	100.0	347	276
Frame#	Time	T2			MAN			LASI			RASI			LPSI			LPAT			LKNE			LANK			LMED			LHEE			LTOE			RPAT			RKNE			RANK			RMED			RHEE			RTOE			RPSI			T10			RTHI			LTHI			RTIB			LTIB			
		X1	Y1	Z1	X2	Y2	Z2	X3	Y3	Z3	X4	Y4	Z4	X5	Y5	Z5	X6	Y6	Z6	X7	Y7	Z7	X8	Y8	Z8	X9	Y9	Z9	X10	Y10	Z10	X11	Y11	Z11	X12	Y12	Z12	X13	Y13	Z13	X14	Y14	Z14	X15	Y15	Z15	X16	Y16	Z16	X17	Y17	Z17	X18	Y18	Z18	X19	Y19	Z19	X20	Y20	Z20	X21	Y21	Z21	X22	Y22	Z22	X23	Y23	Z23	

347	3.460	983.24886	31.27215	957.39636	858.72024	38.82540	1011.21028	949.09652	99.30391	657.57268	926.13070	-75.60686	679.09878	833.85088	69.75986	712.06922	1051.28547	81.59201	424.46959	1008.78312	136.19407	378.32092	889.40953	153.34512	140.05482	904.49972	83.66156	143.98341	865.19573	106.36768	173.24349	938.08696	125.16722	117.89368	883.32545	-9.20893	389.37420	834.46417	-61.78436	359.62583	782.53258	-44.22499	89.79684	769.25247	22.03640	105.87250	735.13382	-20.00805	125.89237	823.02430	-3.39966	76.05806	826.10791	0.54380	724.15693	846.21593	40.84139	814.15980	872.19797	-136.32085	461.39160	963.28713	202.46504	496.56521	806.38510	-121.04609	239.67836	955.50607	205.59530	286.40192	
348	3.470	992.09892	31.23201	955.96528	867.91577	39.09112	1010.51091	959.63386	97.54688	656.63793	933.59407	-77.15523	678.63223	843.37231	70.15922	710.46394	1067.21574	79.03361	428.31627	1027.19807	134.25860	380.97788	917.79740	153.81786	138.56281	931.54115	83.91517	142.72143	891.55695	107.12473	170.49601	966.75186	124.92023	118.20968	887.58573	-10.02895	388.68676	838.07001	-62.45526	359.79525	783.31130	-44.08007	90.38139	770.52650	22.11567	106.72303	736.46795	-19.69515	127.06397	823.89636	-3.42540	76.18882	834.61033	1.04646	723.02379	854.87926	41.11929	813.12710	876.88498	-137.00783	461.11013	978.51723	200.82628	497.86750	808.26127	-121.34043	239.88430	978.80584	204.72462	287.41267	
349	3.480	1000.95245	31.39244	954.35585	877.11523	39.43286	1009.58288	970.20989	95.83815	655.50257	941.46189	-78.57121	678.05590	853.04432	70.41641	708.75533	1082.36243	75.80849	431.65481	1044.96782	131.77735	383.30007	946.11238	154.05524	136.96657	958.32220	83.92620	141.22291	917.75459	107.72887	167.49062	995.18716	124.32251	118.39021	892.12728	-10.81408	387.91683	842.05936	-63.18123	359.90782	784.19423	-44.04070	90.95903	771.84158	22.07255	107.57198	737.89294	-19.54793	128.25460	824.79142	-3.49063	76.29174	843.39062	1.41109	721.79436	863.65765	41.39795	811.87505	882.07958	-137.71922	460.73529	993.51007	198.74410	498.86730	810.46694	-121.70416	240.05510	1001.83617	203.41769	288.25083	
350	3.490	1009.83353	31.75888	952.61666	886.34085	39.87084	1008.46264	980.86117	94.17248	654.20661	949.77376	-79.86743	677.39437	862.90195	70.51852	706.97460	1096.67849	71.92590	434.38786	1062.01502	128.75013	385.20939	974.13796	153.98589	135.24573	984.62868	83.62984	139.46221	943.59333	108.13039	164.23588	1023.16628	123.29940	118.37958	897.00169	-11.60383	387.07573	846.46741	-63.97984	359.97011	785.21819	-44.12738	91.54334	773.23667	21.89417	108.44124	739.44903	-19.58249	129.48541	825.74017	-3.61026	76.36967	852.47720	1.62148	720.48748	872.57669	41.65423	810.44012	887.78926	-138.48163	460.27671	1008.26579	196.21606	499.54014	813.03810	-122.16100	240.19743	1024.46812	201.63848	288.85531	
351	3.500	1018.77053	32.32866	950.78620	895.61665	40.41955	1007.17658	991.62751	92.54029	652.77631	958.55311	-81.06561	676.66168	872.97939	70.46269	705.13570	1110.14256	67.41835	436.41429	1078.28368	125.19523	386.61461	1001.62304	153.53318	133.36340	1010.21708	82.95623	137.40900	968.84974	108.27221	160.73833	1050.43127	121.77546	118.10491	902.27054	-12.43266	386.16679	851.33728	-64.86044	359.97983	786.42278	-44.36082	92.14299	774.75333	21.56562	109.34830	741.18288	-19.81637	130.77423	826.77694	-3.80120	76.42179	861.89204	1.67180	719.10883	881.66581	41.86838	808.84838	894.01619	-139.31554	459.73974	1022.79287	193.25355	499.84663	816.02285	-122.72974	240.31294	1046.56879	199.35991	289.14437	
352	3.510	1027.79508	33.09148	948.89200	904.96741	41.08789	1005.74004	1002.54937	90.92822	651.22413	967.80734	-82.19526	675.86038	883.30928	70.25466	703.23823	1122.75920	62.34361	437.63720	1093.73798	121.15136	387.41844	1028.28582	152.61932	131.26582	1034.82389	81.83501	135.02862	993.27664	108.08846	156.99885	1076.70119	119.68377	117.48102	907.99846	-13.32834	385.18372	856.71346	-65.82422	359.92487	787.84471	-44.75741	92.76121	776.43312	21.07430	110.30460	743.14243	-20.26296	132.13404	827.93555	-4.07934	76.44325	871.65137	1.56509	717.65326	890.95819	42.02435	807.11500	900.75653	-140.23452	459.12325	1037.10361	189.88327	499.73588	819.47019	-123.42212	240.39771	1067.99643	196.56734	289.02088	
353	3.520	1036.94080	34.03018	946.95093	914.41741	41.87944	1004.15755	1013.66450	89.32051	649.55056	977.52911	-83.29119	674.98115	893.92106	69.90631	701.27186	1134.55747	56.78625	437.97280	1108.35904	116.67926	387.52610	1053.82157	151.17199	128.88431	1058.17820	80.20201	132.28448	1016.61043	107.50603	153.01024	1101.68402	116.97627	116.41799	914.24700	-14.31115	384.10936	862.63585	-66.86473	359.78295	789.51325	-45.32506	93.39608	778.31547	20.41426	111.31452	745.37277	-20.92616	133.57212	829.24562	-4.45652	76.42519	881.76587	1.31053	716.10787	900.48988	42.10904	805.24504	907.99991	-141.24494	458.41800	1051.20817	186.14882	499.15073	823.41962	-124.24102	240.44233	1088.59631	193.26323	288.37953	
354	3.530	1046.24179	35.12154	944.97058	923.98931	42.79265	1002.42431	1025.00383	87.70125	647.74767	987.69845	-84.39011	674.00312	904.83837	69.43255	699.22187	1145.58822	50.85809	437.35966	1122.14051	111.86245	386.85503	1077.91447	149.13370	126.14059	1080.01645	78.00842	129.14258	1038.58182	106.45023	148.75759	1125.09141	113.63456	114.83115	921.07040	-15.39406	382.91496	869.13553	-67.96888	359.52177	791.44766	-46.06005	94.04160	780.43665	19.58986	112.37524	747.91382	-21.79600	135.09002	830.72972	-4.93810	76.35533	892.24041	0.92006	714.45559	910.29831	42.11103	803.23547	915.72936	-142.34593	457.60575	1065.10815	182.11221	498.03445	827.89370	-125.17925	240.43269	1108.19917	189.47262	287.11604	
